HIERARCHY
ROOT Pelvis
{
	OFFSET 0.000000 0.000000 0.000000
	CHANNELS 6 Xposition Yposition Zposition Zrotation Yrotation Xrotation 
	JOINT Left_hip
	{
		OFFSET 0.076090 -0.089427 -0.010735
		CHANNELS 3 Zrotation Yrotation Xrotation
		JOINT Left_knee
		{
			OFFSET 0.030200 -0.359518 -0.003501
			CHANNELS 3 Zrotation Yrotation Xrotation
			JOINT Left_ankle
			{
				OFFSET -0.011005 -0.371022 -0.045888
				CHANNELS 3 Zrotation Yrotation Xrotation
				JOINT Left_foot
				{
					OFFSET 0.023930 -0.052103 0.111084
					CHANNELS 3 Zrotation Yrotation Xrotation
					End Site
					{
						OFFSET 0.000000 0.000000 0.000000
					}
				}
			}
		}
	}
	JOINT Right_hip
	{
		OFFSET -0.073836 -0.088112 -0.007709
		CHANNELS 3 Zrotation Yrotation Xrotation
		JOINT Right_knee
		{
			OFFSET -0.035715 -0.367809 -0.006536
			CHANNELS 3 Zrotation Yrotation Xrotation
			JOINT Right_ankle
			{
				OFFSET 0.013718 -0.371958 -0.043815
				CHANNELS 3 Zrotation Yrotation Xrotation
				JOINT Right_foot
				{
					OFFSET -0.021936 -0.046387 0.114542
					CHANNELS 3 Zrotation Yrotation Xrotation
					End Site
					{
						OFFSET 0.000000 0.000000 0.000000
					}
				}
			}
		}
	}
	JOINT Spine1
	{
		OFFSET -0.001865 0.102064 -0.019455
		CHANNELS 3 Zrotation Yrotation Xrotation
		JOINT Spine2
		{
			OFFSET 0.003082 0.129260 -0.001938
			CHANNELS 3 Zrotation Yrotation Xrotation
			JOINT Spine3
			{
				OFFSET 0.001104 0.048093 0.026561
				CHANNELS 3 Zrotation Yrotation Xrotation
				JOINT Neck
				{
					OFFSET -0.002010 0.204222 -0.047183
					CHANNELS 3 Zrotation Yrotation Xrotation
					JOINT Head
					{
						OFFSET 0.005050 0.063649 0.048489
						CHANNELS 3 Zrotation Yrotation Xrotation
						End Site
						{
							OFFSET 0.000000 0.000000 0.000000
						}
					}
				}
				JOINT Left_collar
				{
					OFFSET 0.072979 0.114065 -0.031633
					CHANNELS 3 Zrotation Yrotation Xrotation
					JOINT Left_shoulder
					{
						OFFSET 0.083419 0.032092 -0.006530
						CHANNELS 3 Zrotation Yrotation Xrotation
						JOINT Left_elbow
						{
							OFFSET 0.239393 -0.012014 -0.025060
							CHANNELS 3 Zrotation Yrotation Xrotation
							JOINT Left_wrist
							{
								OFFSET 0.227297 0.008116 0.000384
								CHANNELS 3 Zrotation Yrotation Xrotation
								JOINT Left_palm
								{
									OFFSET 0.074607 -0.009248 -0.012277
									CHANNELS 3 Zrotation Yrotation Xrotation
									End Site
									{
										OFFSET 0.000000 0.000000 0.000000
									}
								}
							}
						}
					}
				}
				JOINT Right_collar
				{
					OFFSET -0.074980 0.111880 -0.037894
					CHANNELS 3 Zrotation Yrotation Xrotation
					JOINT Right_shoulder
					{
						OFFSET -0.087565 0.034353 -0.009323
						CHANNELS 3 Zrotation Yrotation Xrotation
						JOINT Right_elbow
						{
							OFFSET -0.236838 -0.013719 -0.019794
							CHANNELS 3 Zrotation Yrotation Xrotation
							JOINT Right_wrist
							{
								OFFSET -0.235053 0.006433 -0.003853
								CHANNELS 3 Zrotation Yrotation Xrotation
								JOINT Right_palm
								{
									OFFSET -0.075499 -0.006894 -0.009792
									CHANNELS 3 Zrotation Yrotation Xrotation
									End Site
									{
										OFFSET 0.000000 0.000000 0.000000
									}
								}
							}
						}
					}
				}
			}
		}
	}
}
MOTION
Frames: 10
Frame Time: 0.100000
0.003552 0.807039 0.061225 178.467969 13.607770 -59.990570 0.106120 0.356243 -94.989979 20.161695 32.826933 131.642817 -12.219112 24.822231 6.046342 34.088482 -0.813817 -25.919536 11.704198 0.485233 -36.683730 6.324796 -7.704733 -8.434296 0.879528 -25.175622 27.604578 -31.457616 16.443641 -19.183108 6.715687 7.594849 69.641878 5.283079 -8.215050 12.703310 10.795215 4.617631 0.903780 -30.195512 8.502810 -22.102524 3.663972 0.526126 -35.937659 18.491364 -41.329909 -1.962623 18.495455 -47.985781 -27.963003 -69.396411 -70.997329 80.854422 4.468550 -11.677984 -9.255930 -10.588864 -8.293504 -17.081502 8.699253 48.562644 9.252127 13.358638 27.291958 -9.110195 -3.708628 52.086555 -6.594327 -6.179054 1.137564 -19.333448 12.846454 9.759611 -9.301471 
0.003367 0.806944 0.061587 178.329570 13.627087 -60.091797 0.061279 0.339737 -94.897096 20.138066 32.841519 131.673695 -12.204092 24.817043 6.011126 34.083206 -0.822495 -25.908617 11.648810 0.472461 -36.754162 6.356568 -7.729756 -8.211573 0.853506 -25.162152 27.430338 -31.393798 16.439161 -19.168550 6.734822 7.598306 69.647262 5.246792 -8.178202 12.788011 10.767531 4.629165 0.860773 -30.205147 8.477464 -22.135887 3.617428 0.454978 -35.984910 18.522852 -41.376274 -1.996004 18.575017 -47.992740 -28.032913 -69.131270 -70.990569 80.670964 4.457543 -11.635014 -9.037941 -10.541841 -8.315221 -17.178421 8.677183 48.589770 9.268666 13.323558 27.191558 -9.097558 -3.671189 52.101441 -6.523381 -6.184585 1.167668 -19.314376 12.839320 9.783162 -9.354926 
0.004360 0.806995 0.061066 177.794421 13.728019 -60.243610 -0.105290 -0.156659 -94.645824 19.947813 32.797260 131.558779 -12.291248 24.708787 5.344659 34.168456 -0.851109 -25.316114 10.961192 1.330205 -37.135352 5.923896 -8.239633 -7.358055 0.393276 -25.403066 26.736054 -30.542519 16.531025 -18.681640 6.946463 7.157358 69.952115 5.327479 -8.103718 12.755166 10.722244 4.661757 0.591619 -30.151554 8.569505 -21.922568 3.361797 0.445605 -36.198569 18.307999 -41.316389 -1.968819 18.592978 -48.296625 -27.940541 -67.474736 -71.066665 78.935912 4.482161 -11.754458 -8.985110 -10.464154 -8.306262 -16.891179 8.877224 48.495966 9.403516 12.899906 27.141590 -8.918268 -3.540084 51.949944 -6.306972 -6.301574 1.276628 -19.087841 12.772863 9.851946 -9.290895 
0.004341 0.806834 0.061139 177.755038 13.738446 -60.240625 -0.128400 -0.146820 -94.621207 19.930273 32.810657 131.540628 -12.287110 24.723842 5.377753 34.174580 -0.863727 -25.362081 11.011348 1.240131 -37.138164 5.929952 -8.163942 -7.355341 0.419857 -25.404594 26.740574 -30.624927 16.549944 -18.720415 6.935056 7.189176 69.948578 5.292723 -8.109289 12.781081 10.707598 4.662089 0.614231 -30.142057 8.530364 -21.913184 3.403265 0.448024 -36.185084 18.345144 -41.351809 -1.999495 18.681576 -48.267639 -28.038649 -67.534113 -71.088094 78.993464 4.428150 -11.713296 -8.937619 -10.475818 -8.334747 -16.945244 8.821109 48.523637 9.394828 12.902424 27.099695 -8.938504 -3.513558 51.985715 -6.267315 -6.259195 1.271654 -19.068864 12.781137 9.871397 -9.326750 
0.004395 0.806877 0.061094 177.755026 13.754711 -60.280661 -0.219174 -0.139789 -94.515200 19.825475 32.855734 131.475365 -12.322989 24.821981 5.204466 34.325314 -0.989073 -25.452823 11.116868 1.051836 -37.144770 5.930878 -7.988849 -7.290801 0.515903 -25.525031 26.722477 -30.951020 16.640771 -18.895101 6.923257 7.217623 69.970738 5.263346 -8.102113 12.873748 10.706609 4.692537 0.705482 -30.221521 8.367844 -21.968657 3.440812 0.447848 -36.107488 18.463983 -41.313096 -1.970958 19.063940 -48.226256 -28.426418 -67.519871 -71.086410 78.963903 4.260398 -11.550011 -8.805504 -10.459006 -8.390573 -17.135527 8.684384 48.492189 9.321887 12.861894 27.046420 -9.098031 -3.712885 52.163518 -6.531397 -6.205127 1.245384 -19.245812 12.774057 9.890588 -9.350329 
0.004326 0.806706 0.061125 177.696168 13.739669 -60.316268 -0.201447 -0.151413 -94.513298 19.804755 32.840391 131.424649 -12.285333 24.856060 5.361765 34.345740 -0.948426 -25.471911 11.131213 1.042133 -37.098686 5.943721 -7.998735 -7.329874 0.467314 -25.496935 26.772888 -30.881725 16.604545 -18.871051 6.961374 7.231012 69.987480 5.299618 -8.074655 12.902605 10.731389 4.703230 0.702840 -30.222370 8.452771 -21.979700 3.374196 0.435484 -36.120279 18.550324 -41.300398 -2.049741 19.158773 -48.305477 -28.502284 -67.417869 -71.043699 78.886584 4.270652 -11.504034 -8.769638 -10.444884 -8.381231 -17.101981 8.643089 48.448916 9.257430 12.833896 26.979527 -9.044641 -3.615104 52.288432 -6.404372 -6.146076 1.236736 -19.204918 12.795655 9.917215 -9.386362 
0.003371 0.806849 0.061596 178.121147 13.650282 -60.130731 0.003307 0.291876 -94.766621 20.092986 32.884448 131.697318 -12.236496 24.735077 5.806578 34.137212 -0.837425 -25.661539 11.498406 0.566713 -36.921372 6.357794 -7.990803 -7.879899 0.726978 -25.122388 27.150138 -31.034048 16.382613 -19.000018 6.778580 7.610341 69.735478 5.227269 -8.032029 12.981277 10.736478 4.680055 0.736410 -30.131186 8.711596 -21.999359 3.438475 0.285339 -36.009031 18.747123 -41.201570 -2.154838 18.885190 -48.373795 -28.373243 -67.611521 -71.113666 79.122926 4.127939 -11.471286 -8.677374 -10.372468 -8.302429 -17.370345 8.545854 48.427619 9.230476 13.163480 27.124321 -9.029063 -3.853899 52.249760 -6.590716 -6.026076 1.162859 -19.349224 12.759698 9.842138 -9.458370 
0.003299 0.806866 0.061545 178.117738 13.666434 -60.133363 0.005905 0.289135 -94.774873 20.091966 32.883195 131.698708 -12.234385 24.735354 5.807799 34.137387 -0.836694 -25.662032 11.504702 0.565235 -36.926547 6.359558 -7.987580 -7.879178 0.727200 -25.120471 27.149100 -31.034259 16.382973 -19.001284 6.782193 7.611701 69.749555 5.222678 -8.028467 12.987197 10.730306 4.682549 0.738152 -30.126596 8.711150 -21.996623 3.442152 0.284079 -36.010044 18.733862 -41.200576 -2.169002 18.897013 -48.363757 -28.405751 -67.547355 -71.128703 79.059155 4.130127 -11.470218 -8.678244 -10.372371 -8.302541 -17.370765 8.547323 48.431718 9.229330 13.161892 27.127372 -9.031649 -3.855775 52.250930 -6.591953 -6.025958 1.163223 -19.349365 12.759801 9.842306 -9.458613 
0.003236 0.806937 0.061508 178.145094 13.671153 -60.114576 0.004115 0.289991 -94.769634 20.091478 32.885590 131.694281 -12.227729 24.727442 5.812784 34.130488 -0.829758 -25.660054 11.514388 0.548089 -36.937054 6.354848 -7.976964 -7.870503 0.726207 -25.106887 27.173031 -31.030665 16.372705 -19.002122 6.802605 7.595774 69.744648 5.225362 -8.015841 12.985937 10.729901 4.696367 0.740388 -30.054890 8.677723 -21.931260 3.475523 0.270000 -35.960161 18.706082 -41.216210 -2.198352 18.876617 -48.357782 -28.446877 -67.398786 -71.204196 78.912321 4.088953 -11.445151 -8.612613 -10.374076 -8.318479 -17.376058 8.495416 48.464670 9.207284 13.126821 27.134038 -9.024125 -3.720644 52.263361 -6.415952 -5.956865 1.160812 -19.267239 12.745576 9.859566 -9.479776 
0.003122 0.807843 0.061163 178.166900 13.732386 -60.136239 0.024896 0.085096 -94.890545 20.112766 32.904992 131.703552 -12.140288 24.629108 5.619492 33.950910 -0.807013 -25.459598 11.466472 0.530503 -37.053487 6.295185 -8.044501 -7.753484 0.800942 -25.093242 27.345312 -31.115558 16.256227 -19.017803 6.813707 7.549517 69.651269 5.190173 -8.047675 12.859258 10.737319 4.678895 0.661946 -29.617085 8.314808 -21.553407 3.805176 0.128691 -35.705623 18.574607 -41.340610 -2.216167 18.342928 -48.515699 -28.250984 -65.960342 -71.495559 77.661909 3.483980 -11.283903 -7.760454 -10.360516 -8.456992 -17.516412 8.082094 48.518730 9.019320 13.210355 27.022424 -8.898688 -3.151824 52.282244 -5.437184 -5.253699 1.243200 -18.735806 12.648309 10.015272 -9.654971 
